<?xml version="1.0" encoding="utf-8"?>
<!-- Generator: Adobe Illustrator 23.0.1, SVG Export Plug-In . SVG Version: 6.00 Build 0)  -->
<svg version="1.1" id="Слой_1" xmlns="http://www.w3.org/2000/svg" xmlns:xlink="http://www.w3.org/1999/xlink" x="0px" y="0px"
	 viewBox="0 0 376 121" style="enable-background:new 0 0 376 121;" xml:space="preserve">
<style type="text/css">
	.st0{fill:#FFFFFF;}
	.st1{fill:none;stroke:#FFFFFF;stroke-width:2.8413;stroke-miterlimit:10;}
</style>
<g>
	<path class="st0" d="M125.07,81.99c-3.31-1.92-5.85-4.56-7.62-7.93c-1.78-3.37-2.66-7.16-2.66-11.37c0-4.59,0.96-8.59,2.88-12.02
		c1.92-3.43,4.64-6.06,8.15-7.9c3.51-1.84,7.6-2.76,12.27-2.76c3.76,0,7.4,0.52,10.91,1.55l0.99,10.72l-0.12,0.06
		c-1.24-1.9-2.9-3.35-4.99-4.34c-2.09-0.99-4.37-1.49-6.85-1.49c-4.34,0-7.76,1.39-10.26,4.18c-2.5,2.79-3.75,6.58-3.75,11.37
		c0,4.88,1.15,8.8,3.44,11.78c2.29,2.97,5.55,4.46,9.76,4.46c3.18,0,5.87-0.59,8.06-1.77c2.19-1.18,4.15-2.9,5.89-5.18l0.12,0.06
		l-1.49,11.09c-4.46,1.57-8.86,2.35-13.2,2.35C132.22,84.87,128.38,83.91,125.07,81.99z"/>
	<path class="st0" d="M156.61,83.82c0.83-0.62,1.56-1.73,2.2-3.32c0.64-1.59,0.96-3.54,0.96-5.86V50.17c0-2.4-0.33-4.37-0.99-5.92
		c-0.66-1.55-1.45-2.63-2.35-3.25v-0.12h15.12v0.12c-0.83,0.62-1.57,1.73-2.23,3.32c-0.66,1.59-0.99,3.54-0.99,5.86v10.91
		c0,3.64-0.46,7.97-1.36,13.01h0.25c1.36-3.88,3.37-8.04,6.01-12.46l8.92-14.81c0.95-1.57,1.59-2.78,1.92-3.63
		c0.33-0.85,0.54-1.62,0.62-2.32h13.7v0.12c-0.5,0.25-1.03,0.84-1.61,1.77c-0.58,0.93-1.06,2.04-1.46,3.31
		c-0.39,1.28-0.59,2.54-0.59,3.78v24.79c0,2.4,0.33,4.37,0.99,5.92c0.66,1.55,1.45,2.63,2.35,3.25v0.12h-15.25v-0.12
		c0.91-0.62,1.69-1.71,2.35-3.28c0.66-1.57,0.99-3.53,0.99-5.89V63.49c0-4.13,0.58-8.72,1.74-13.76h-0.25
		c-1.65,4.71-3.74,9.11-6.26,13.2l-9.36,15.12c-1.32,2.15-2.36,4.11-3.1,5.89h-12.33V83.82z"/>
	<path class="st0" d="M243.5,44.28c-0.66,1.57-0.99,3.53-0.99,5.89V74.9c0,2.27,0.33,4.18,0.99,5.73c0.66,1.55,1.45,2.61,2.35,3.19
		v0.12h-15v-0.12c0.83-0.62,1.56-1.7,2.2-3.25c0.64-1.55,0.96-3.44,0.96-5.67V64.05h-16.49v10.6c0,2.35,0.31,4.32,0.93,5.89
		s1.36,2.66,2.23,3.28v0.12h-15v-0.12c0.91-0.62,1.69-1.71,2.35-3.28c0.66-1.57,0.99-3.53,0.99-5.89V50.17
		c0-2.4-0.33-4.37-0.99-5.92c-0.66-1.55-1.45-2.63-2.35-3.25v-0.12h15v0.12c-0.83,0.62-1.56,1.73-2.2,3.32
		c-0.64,1.59-0.96,3.54-0.96,5.86v7.68h16.49v-7.68c0-2.36-0.31-4.32-0.93-5.89c-0.62-1.57-1.36-2.66-2.23-3.29v-0.12h15v0.12
		C244.95,41.62,244.16,42.71,243.5,44.28z"/>
	<path class="st0" d="M284.96,51.72l-0.12,0.06c-0.74-1.32-1.83-2.42-3.25-3.29c-1.43-0.87-3.03-1.3-4.8-1.3h-4.65v26.96
		c0,2.52,0.36,4.62,1.08,6.29c0.72,1.67,1.62,2.8,2.7,3.38v0.12h-16.05v-0.12c0.99-0.58,1.87-1.73,2.63-3.44
		c0.76-1.71,1.15-3.79,1.15-6.23V47.19h-4.71c-1.78,0-3.38,0.43-4.8,1.3c-1.42,0.87-2.51,1.96-3.25,3.29l-0.12-0.06l1.05-11.34
		c2.52,0.33,5.35,0.5,8.49,0.5h15.12c3.14,0,5.97-0.16,8.49-0.5L284.96,51.72z"/>
	<path class="st0" d="M321.03,72.11l-1.74,12.33c-1.16-0.21-2.26-0.34-3.31-0.4c-1.05-0.06-2.47-0.09-4.25-0.09h-21.88v-0.12
		c0.91-0.62,1.69-1.71,2.35-3.28c0.66-1.57,0.99-3.53,0.99-5.89V50.17c0-2.4-0.33-4.37-0.99-5.92c-0.66-1.55-1.45-2.63-2.35-3.25
		v-0.12h22.25c2.93,0,5.12-0.16,6.57-0.5l1.05,11.09l-0.12,0.06c-0.74-1.53-1.94-2.67-3.59-3.44c-1.65-0.76-3.7-1.15-6.14-1.15
		h-8.18v10.91h4.71c2.6,0,4.52-0.03,5.76-0.09c1.24-0.06,2.54-0.17,3.9-0.34l-1.8,10.41h-0.12c-0.5-1.36-1.3-2.36-2.42-2.98
		c-1.12-0.62-2.56-0.93-4.34-0.93h-5.7v13.94h6.76c2.73,0,5.15-0.5,7.28-1.49c2.13-0.99,3.85-2.44,5.17-4.34L321.03,72.11z"/>
	<path class="st0" d="M331.22,84.35c-1.92-0.39-3.46-0.92-4.62-1.58l-0.87-9.67l0.12-0.06c1.2,1.98,2.75,3.4,4.65,4.24
		c1.9,0.85,4.13,1.27,6.69,1.27c2.56,0,4.53-0.65,5.92-1.95c1.38-1.3,2.08-3.11,2.08-5.42c0-2.23-0.66-4.03-1.98-5.39
		c-1.32-1.36-3.14-2.05-5.45-2.05c-1.53,0-2.82,0.11-3.87,0.34c-1.05,0.23-2.2,0.67-3.44,1.33l-0.12-0.06l1.18-8.06
		c1.12,0.17,2.87,0.25,5.27,0.25c2.35,0,4.11-0.56,5.27-1.67c1.16-1.12,1.74-2.58,1.74-4.4c0-1.61-0.56-2.88-1.67-3.81
		s-2.75-1.39-4.9-1.39c-2.19,0-4.19,0.42-6.01,1.27c-1.82,0.85-3.33,2.04-4.53,3.56l-0.12-0.06l1.43-9.3
		c1.49-0.54,3.12-0.98,4.9-1.33c1.78-0.35,3.43-0.53,4.96-0.53c4.59,0,8.16,0.97,10.72,2.91c2.56,1.94,3.84,4.63,3.84,8.06
		c0,2.11-0.49,3.98-1.46,5.61c-0.97,1.63-2.3,2.94-4,3.94v0.12c2.11,0.87,3.81,2.28,5.11,4.25c1.3,1.96,1.95,4.27,1.95,6.91
		c0,2.56-0.63,4.84-1.89,6.85c-1.26,2-3.13,3.57-5.61,4.71c-2.48,1.14-5.52,1.7-9.11,1.7C335.2,84.94,333.15,84.74,331.22,84.35z"/>
</g>
<path class="st1" d="M54.64,29.16h0.12c0,0,2.94-4.3,11.12-6.39C71.91,21.24,88,17.69,88,17.69l-0.36,50.02
	c0.24,5.68-3.78,11.87-16.56,16.84s-13.72,9.61-13.72,9.61v14.23h-1.89h-3.58V94.16c0,0-0.95-4.64-13.72-9.61
	S21.38,73.39,21.62,67.71l-0.36-50.02c0,0,16.09,3.55,22.12,5.09c8.18,2.08,11.12,6.39,11.12,6.39h0.12"/>
<path class="st1" d="M57.22,108.39"/>
<line class="st1" x1="54.61" y1="29.28" x2="54.61" y2="74.78"/>
<line class="st1" x1="77.66" y1="50.14" x2="54.66" y2="60.66"/>
<line class="st1" x1="54.34" y1="51.48" x2="31.96" y2="40.23"/>
</svg>
