<?xml version="1.0" encoding="utf-8"?>
<!-- Generator: Adobe Illustrator 23.0.1, SVG Export Plug-In . SVG Version: 6.00 Build 0)  -->
<svg version="1.1" id="Слой_1" xmlns="http://www.w3.org/2000/svg" xmlns:xlink="http://www.w3.org/1999/xlink" x="0px" y="0px"
	 viewBox="0 0 220 315" style="enable-background:new 0 0 220 315;" xml:space="preserve">
<style type="text/css">
	.st0{fill:#514E49;}
	.st1{fill:none;stroke:#3C5D3D;stroke-width:4;stroke-miterlimit:10;}
</style>
<g>
	<g>
		<path class="st0" d="M26.39,210.35c-2.53-1.47-4.47-3.49-5.83-6.07c-1.36-2.57-2.04-5.47-2.04-8.7c0-3.51,0.73-6.57,2.2-9.2
			c1.47-2.62,3.55-4.64,6.23-6.04c2.69-1.41,5.81-2.11,9.38-2.11c2.88,0,5.66,0.4,8.34,1.18l0.76,8.2l-0.09,0.05
			c-0.95-1.45-2.22-2.56-3.82-3.32s-3.34-1.14-5.24-1.14c-3.32,0-5.93,1.07-7.84,3.2c-1.91,2.13-2.87,5.03-2.87,8.7
			c0,3.73,0.88,6.73,2.63,9.01c1.75,2.27,4.24,3.41,7.47,3.41c2.43,0,4.49-0.45,6.16-1.35s3.18-2.22,4.5-3.96l0.09,0.05l-1.14,8.48
			c-3.41,1.2-6.78,1.8-10.1,1.8C31.85,212.55,28.92,211.81,26.39,210.35z"/>
		<path class="st0" d="M50.51,211.74c0.63-0.47,1.19-1.32,1.68-2.54c0.49-1.22,0.74-2.71,0.74-4.48v-18.72
			c0-1.83-0.25-3.34-0.76-4.53c-0.51-1.18-1.11-2.01-1.8-2.49v-0.09h11.57v0.09c-0.63,0.47-1.2,1.32-1.71,2.54
			c-0.51,1.22-0.76,2.71-0.76,4.48v8.34c0,2.78-0.35,6.1-1.04,9.95h0.19c1.04-2.97,2.58-6.15,4.6-9.53l6.83-11.33
			c0.73-1.2,1.22-2.13,1.47-2.77c0.25-0.65,0.41-1.24,0.47-1.78h10.48v0.09c-0.38,0.19-0.79,0.64-1.23,1.35
			c-0.44,0.71-0.81,1.56-1.11,2.54c-0.3,0.98-0.45,1.94-0.45,2.89v18.96c0,1.83,0.25,3.34,0.76,4.53c0.5,1.18,1.11,2.01,1.8,2.49
			v0.09H70.56v-0.09c0.69-0.47,1.3-1.31,1.8-2.51c0.51-1.2,0.76-2.7,0.76-4.5v-8.53c0-3.16,0.44-6.67,1.33-10.52h-0.19
			c-1.26,3.6-2.86,6.97-4.79,10.1l-7.16,11.57c-1.01,1.64-1.8,3.14-2.37,4.5h-9.43V211.74z"/>
		<path class="st0" d="M116.97,181.5c-0.51,1.2-0.76,2.7-0.76,4.5v18.91c0,1.74,0.25,3.2,0.76,4.38c0.5,1.19,1.11,2,1.8,2.44v0.09
			H107.3v-0.09c0.63-0.47,1.19-1.3,1.68-2.49c0.49-1.19,0.74-2.63,0.74-4.34v-8.29H97.11v8.11c0,1.8,0.24,3.3,0.71,4.5
			s1.04,2.04,1.71,2.51v0.09H88.06v-0.09c0.69-0.47,1.29-1.31,1.8-2.51c0.5-1.2,0.76-2.7,0.76-4.5v-18.72
			c0-1.83-0.25-3.34-0.76-4.53c-0.51-1.18-1.11-2.01-1.8-2.49v-0.09h11.47v0.09c-0.63,0.47-1.19,1.32-1.68,2.54
			c-0.49,1.22-0.73,2.71-0.73,4.48v5.88h12.61v-5.88c0-1.8-0.24-3.3-0.71-4.5c-0.47-1.2-1.04-2.04-1.71-2.51v-0.09h11.47v0.09
			C118.07,179.47,117.47,180.3,116.97,181.5z"/>
		<path class="st0" d="M148.68,187.19l-0.09,0.05c-0.57-1.01-1.4-1.85-2.49-2.51c-1.09-0.66-2.32-1-3.67-1h-3.55v20.62
			c0,1.93,0.28,3.53,0.83,4.81c0.55,1.28,1.24,2.14,2.06,2.58v0.09h-12.28v-0.09c0.76-0.44,1.43-1.32,2.01-2.63
			c0.58-1.31,0.88-2.9,0.88-4.76v-20.62h-3.6c-1.36,0-2.58,0.33-3.67,1c-1.09,0.66-1.92,1.5-2.49,2.51l-0.09-0.05l0.81-8.67
			c1.93,0.25,4.09,0.38,6.49,0.38h11.57c2.4,0,4.57-0.13,6.49-0.38L148.68,187.19z"/>
		<path class="st0" d="M176.26,202.79l-1.33,9.43c-0.88-0.16-1.73-0.26-2.54-0.31c-0.81-0.05-1.89-0.07-3.25-0.07h-16.73v-0.09
			c0.69-0.47,1.29-1.31,1.8-2.51c0.5-1.2,0.76-2.7,0.76-4.5v-18.72c0-1.83-0.25-3.34-0.76-4.53c-0.51-1.18-1.11-2.01-1.8-2.49v-0.09
			h17.02c2.24,0,3.92-0.13,5.02-0.38l0.81,8.48l-0.09,0.05c-0.57-1.17-1.49-2.05-2.75-2.63c-1.26-0.58-2.83-0.88-4.69-0.88h-6.26
			v8.34h3.6c1.99,0,3.46-0.02,4.41-0.07c0.95-0.05,1.94-0.13,2.99-0.26l-1.38,7.96H171c-0.38-1.04-1-1.8-1.85-2.28
			c-0.85-0.47-1.96-0.71-3.32-0.71h-4.36v10.66h5.17c2.08,0,3.94-0.38,5.57-1.14c1.63-0.76,2.95-1.86,3.96-3.32L176.26,202.79z"/>
		<path class="st0" d="M184.06,212.15c-1.47-0.3-2.65-0.7-3.53-1.21l-0.66-7.39l0.09-0.05c0.92,1.52,2.1,2.6,3.56,3.25
			c1.45,0.65,3.16,0.97,5.12,0.97c1.96,0,3.47-0.5,4.53-1.49c1.06-1,1.59-2.38,1.59-4.15c0-1.71-0.51-3.08-1.52-4.12
			c-1.01-1.04-2.4-1.56-4.17-1.56c-1.17,0-2.16,0.09-2.96,0.26c-0.81,0.17-1.68,0.51-2.63,1.02l-0.09-0.05l0.9-6.16
			c0.85,0.13,2.2,0.19,4.03,0.19c1.8,0,3.14-0.43,4.03-1.28s1.33-1.97,1.33-3.37c0-1.23-0.43-2.2-1.28-2.92s-2.1-1.07-3.74-1.07
			c-1.68,0-3.21,0.32-4.6,0.97c-1.39,0.65-2.54,1.56-3.46,2.73l-0.09-0.05l1.09-7.11c1.14-0.41,2.38-0.75,3.74-1.02
			c1.36-0.27,2.62-0.4,3.79-0.4c3.51,0,6.24,0.74,8.2,2.23c1.96,1.49,2.94,3.54,2.94,6.16c0,1.61-0.37,3.04-1.11,4.29
			c-0.74,1.25-1.76,2.25-3.06,3.01v0.09c1.61,0.66,2.92,1.75,3.91,3.25c1,1.5,1.49,3.26,1.49,5.29c0,1.96-0.48,3.71-1.45,5.24
			c-0.96,1.53-2.39,2.73-4.29,3.6c-1.9,0.87-4.22,1.3-6.97,1.3C187.1,212.6,185.53,212.45,184.06,212.15z"/>
	</g>
	<g>
		<path class="st0" d="M49.37,238.12c-0.41,0.75-0.98,1.35-1.71,1.79c-0.73,0.44-1.57,0.68-2.52,0.72c0.03,0.43,0.12,0.79,0.26,1.09
			s0.31,0.5,0.49,0.62v0.03h-3.45v-0.03c0.18-0.12,0.34-0.33,0.49-0.63c0.15-0.3,0.23-0.67,0.26-1.1c-1-0.04-1.86-0.26-2.59-0.66
			c-0.73-0.4-1.29-0.95-1.68-1.66c-0.39-0.71-0.58-1.53-0.58-2.47c0-0.9,0.2-1.72,0.61-2.46c0.4-0.74,0.97-1.33,1.71-1.77
			c0.73-0.44,1.57-0.69,2.51-0.73c-0.06-0.38-0.15-0.69-0.28-0.94s-0.28-0.43-0.44-0.54v-0.03h3.45v0.03
			c-0.16,0.11-0.31,0.29-0.44,0.54c-0.13,0.25-0.23,0.56-0.28,0.94c0.97,0.05,1.82,0.28,2.54,0.7c0.73,0.42,1.29,0.98,1.68,1.68
			s0.59,1.49,0.59,2.36C49.99,236.53,49.78,237.37,49.37,238.12z M40.78,237.42c0.23,0.51,0.56,0.92,0.99,1.22s0.91,0.47,1.45,0.52
			v-6.87c-0.89,0.06-1.58,0.39-2.07,0.99c-0.48,0.61-0.73,1.4-0.73,2.39C40.43,236.33,40.55,236.91,40.78,237.42z M46.56,238.69
			c0.42-0.3,0.75-0.7,0.98-1.21c0.23-0.51,0.35-1.09,0.35-1.74c0-0.63-0.12-1.2-0.35-1.7c-0.23-0.5-0.56-0.91-0.98-1.22
			c-0.42-0.31-0.91-0.48-1.47-0.52v6.88C45.65,239.15,46.14,238.99,46.56,238.69z"/>
		<path class="st0" d="M53.52,240.23c-0.76-0.44-1.34-1.05-1.74-1.82s-0.6-1.64-0.6-2.61c0-1.05,0.21-1.98,0.63-2.77
			c0.42-0.79,1.02-1.41,1.81-1.85c0.79-0.44,1.72-0.66,2.79-0.66c1,0,1.88,0.21,2.64,0.63c0.76,0.42,1.35,1.02,1.77,1.79
			c0.42,0.77,0.63,1.65,0.63,2.65c0,1.03-0.22,1.95-0.66,2.76c-0.44,0.8-1.05,1.43-1.85,1.87s-1.71,0.66-2.74,0.66
			C55.18,240.9,54.29,240.68,53.52,240.23z M57.89,238.98c0.46-0.3,0.81-0.73,1.07-1.29c0.26-0.56,0.39-1.21,0.39-1.94
			c0-1.18-0.27-2.11-0.82-2.76c-0.54-0.66-1.3-0.99-2.26-0.99c-0.61,0-1.14,0.15-1.59,0.46s-0.8,0.73-1.04,1.28
			c-0.24,0.55-0.36,1.19-0.36,1.92c0,1.17,0.26,2.1,0.79,2.76c0.53,0.67,1.28,1,2.27,1C56.92,239.43,57.43,239.28,57.89,238.98z"/>
		<path class="st0" d="M71.5,231.59c-0.15,0.36-0.23,0.8-0.23,1.34v5.62c0,0.52,0.08,0.95,0.23,1.3s0.33,0.59,0.54,0.73v0.03h-3.41
			v-0.03c0.19-0.14,0.35-0.39,0.5-0.74s0.22-0.78,0.22-1.29v-2.47h-3.75v2.41c0,0.54,0.07,0.98,0.21,1.34
			c0.14,0.36,0.31,0.61,0.51,0.75v0.03H62.9v-0.03c0.21-0.14,0.38-0.39,0.54-0.75s0.23-0.8,0.23-1.34v-5.57
			c0-0.54-0.08-0.99-0.23-1.35s-0.33-0.6-0.54-0.74v-0.03h3.41v0.03c-0.19,0.14-0.35,0.39-0.5,0.75c-0.15,0.36-0.22,0.81-0.22,1.33
			v1.75h3.75v-1.75c0-0.54-0.07-0.98-0.21-1.34c-0.14-0.36-0.31-0.61-0.51-0.75v-0.03h3.41v0.03
			C71.83,230.99,71.65,231.24,71.5,231.59z"/>
		<path class="st0" d="M82.97,239.16l-0.72,2.89h-0.03c-0.09-0.44-0.32-0.79-0.69-1.05s-0.81-0.39-1.34-0.39h-4.98
			c-0.53,0-0.98,0.13-1.35,0.39c-0.37,0.26-0.6,0.61-0.68,1.04h-0.03l-0.72-2.89c0.29,0.02,0.72,0.04,1.28,0.06l2.2-6.41
			c0.13-0.37,0.2-0.71,0.2-1.03c0-0.41-0.11-0.72-0.34-0.93v-0.03h3.86v0.03c-0.25,0.22-0.37,0.54-0.37,0.96
			c0,0.28,0.05,0.56,0.16,0.85l2.31,6.57C82.29,239.2,82.7,239.18,82.97,239.16z M75.64,239.22h4.03l-1.2-3.52
			c-0.23-0.66-0.4-1.2-0.51-1.64c-0.12-0.43-0.21-0.91-0.27-1.44h-0.06c-0.08,0.53-0.19,1-0.3,1.41c-0.12,0.41-0.29,0.97-0.51,1.66
			L75.64,239.22z"/>
		<path class="st0" d="M86.91,240.59c0.21-0.14,0.38-0.39,0.54-0.75s0.23-0.8,0.23-1.34v-5.57c0-0.54-0.06-1-0.17-1.36
			c-0.11-0.36-0.26-0.6-0.45-0.73v-0.03h8.71v0.03c-0.19,0.12-0.34,0.36-0.46,0.73c-0.12,0.36-0.18,0.82-0.18,1.36v5.57
			c0,0.54,0.08,0.98,0.23,1.34c0.15,0.36,0.32,0.61,0.52,0.75v0.03h-3.45v-0.03c0.21-0.14,0.39-0.39,0.54-0.75s0.23-0.8,0.23-1.34
			v-6.27H89.6v6.27c0,0.54,0.08,0.99,0.23,1.35s0.33,0.6,0.54,0.74v0.03h-3.45V240.59z"/>
		<path class="st0" d="M99.66,240.23c-0.76-0.44-1.34-1.05-1.74-1.82s-0.6-1.64-0.6-2.61c0-1.05,0.21-1.98,0.63-2.77
			c0.42-0.79,1.02-1.41,1.81-1.85c0.79-0.44,1.72-0.66,2.79-0.66c1,0,1.88,0.21,2.64,0.63c0.76,0.42,1.35,1.02,1.77,1.79
			c0.42,0.77,0.63,1.65,0.63,2.65c0,1.03-0.22,1.95-0.66,2.76c-0.44,0.8-1.05,1.43-1.85,1.87s-1.71,0.66-2.74,0.66
			C101.32,240.9,100.43,240.68,99.66,240.23z M104.03,238.98c0.46-0.3,0.81-0.73,1.07-1.29c0.26-0.56,0.39-1.21,0.39-1.94
			c0-1.18-0.27-2.11-0.82-2.76c-0.54-0.66-1.3-0.99-2.26-0.99c-0.61,0-1.14,0.15-1.59,0.46s-0.8,0.73-1.04,1.28
			c-0.24,0.55-0.36,1.19-0.36,1.92c0,1.17,0.26,2.1,0.79,2.76c0.53,0.67,1.28,1,2.27,1C103.06,239.43,103.57,239.28,104.03,238.98z"
			/>
		<path class="st0" d="M117.98,239.16l-0.72,2.89h-0.03c-0.09-0.44-0.32-0.79-0.69-1.05s-0.81-0.39-1.34-0.39h-4.98
			c-0.53,0-0.98,0.13-1.35,0.39c-0.37,0.26-0.6,0.61-0.68,1.04h-0.03l-0.72-2.89c0.29,0.02,0.72,0.04,1.28,0.06l2.2-6.41
			c0.13-0.37,0.2-0.71,0.2-1.03c0-0.41-0.11-0.72-0.34-0.93v-0.03h3.86v0.03c-0.25,0.22-0.37,0.54-0.37,0.96
			c0,0.28,0.05,0.56,0.16,0.85l2.31,6.57C117.29,239.2,117.7,239.18,117.98,239.16z M110.65,239.22h4.03l-1.2-3.52
			c-0.23-0.66-0.4-1.2-0.51-1.64c-0.12-0.43-0.21-0.91-0.27-1.44h-0.06c-0.08,0.53-0.19,1-0.3,1.41c-0.12,0.41-0.29,0.97-0.51,1.66
			L110.65,239.22z"/>
		<path class="st0" d="M129.06,239.16l-0.72,2.89h-0.03c-0.09-0.44-0.32-0.79-0.69-1.05s-0.81-0.39-1.34-0.39h-4.98
			c-0.53,0-0.98,0.13-1.35,0.39c-0.37,0.26-0.6,0.61-0.68,1.04h-0.03l-0.72-2.89c0.29,0.02,0.72,0.04,1.28,0.06l2.2-6.41
			c0.13-0.37,0.2-0.71,0.2-1.03c0-0.41-0.11-0.72-0.34-0.93v-0.03h3.86v0.03c-0.25,0.22-0.37,0.54-0.37,0.96
			c0,0.28,0.05,0.56,0.16,0.85l2.31,6.57C128.37,239.2,128.78,239.18,129.06,239.16z M121.73,239.22h4.03l-1.2-3.52
			c-0.23-0.66-0.4-1.2-0.51-1.64c-0.12-0.43-0.21-0.91-0.27-1.44h-0.06c-0.08,0.53-0.19,1-0.3,1.41c-0.12,0.41-0.29,0.97-0.51,1.66
			L121.73,239.22z"/>
		<path class="st0" d="M136.56,237.92l-0.39,2.8c-0.26-0.05-0.51-0.08-0.75-0.09c-0.24-0.01-0.56-0.02-0.97-0.02h-4.98v-0.03
			c0.21-0.14,0.38-0.39,0.54-0.75s0.23-0.8,0.23-1.34v-5.57c0-0.54-0.08-0.99-0.23-1.35s-0.33-0.6-0.54-0.74v-0.03h5.06
			c0.67,0,1.17-0.04,1.49-0.11l0.24,2.52l-0.03,0.01c-0.17-0.35-0.44-0.61-0.82-0.78c-0.38-0.17-0.84-0.26-1.4-0.26h-1.86v2.48h1.07
			c0.59,0,1.03-0.01,1.31-0.02c0.28-0.01,0.58-0.04,0.89-0.08l-0.41,2.37h-0.03c-0.11-0.31-0.3-0.54-0.55-0.68
			c-0.25-0.14-0.58-0.21-0.99-0.21h-1.3v3.17h1.54c0.62,0,1.17-0.11,1.66-0.34c0.48-0.23,0.88-0.55,1.18-0.99L136.56,237.92z"/>
		<path class="st0" d="M144.4,231.65c0.62,0.55,0.93,1.34,0.93,2.35c0,1.13-0.3,1.97-0.92,2.54c-0.61,0.56-1.49,0.85-2.64,0.85
			h-1.16v1.17c0,0.52,0.08,0.95,0.23,1.3s0.33,0.59,0.54,0.73v0.03h-3.45v-0.03c0.21-0.14,0.38-0.39,0.54-0.75s0.23-0.8,0.23-1.34
			v-5.63c0-0.52-0.08-0.95-0.23-1.3c-0.15-0.35-0.33-0.59-0.54-0.73v-0.03h3.85C142.9,230.82,143.77,231.1,144.4,231.65z
			 M143.32,234.1c0-0.65-0.15-1.13-0.46-1.43c-0.3-0.31-0.78-0.46-1.42-0.46h-0.83v3.76l0.83,0.01
			C142.7,236,143.32,235.37,143.32,234.1z"/>
		<path class="st0" d="M148.41,239.38c-0.28,0.4-0.42,0.75-0.42,1.04c0,0.06,0.01,0.12,0.03,0.2h-3.07v-0.03
			c0.31-0.14,0.58-0.33,0.8-0.56s0.49-0.57,0.8-1.01l2.55-3.61l-1.9-3c-0.21-0.34-0.46-0.65-0.76-0.93c-0.3-0.28-0.6-0.49-0.89-0.63
			v-0.03h3.16v0.01c-0.01,0.13,0.02,0.28,0.1,0.45c0.08,0.17,0.2,0.39,0.37,0.66l2.06,3.37L148.41,239.38z M153.47,239.85
			c0.15,0.35,0.33,0.6,0.54,0.74v0.03h-3.38v-0.03c0.21-0.14,0.39-0.39,0.54-0.75s0.23-0.8,0.23-1.34v-5.63
			c0-0.52-0.08-0.95-0.23-1.3c-0.15-0.35-0.33-0.59-0.54-0.73v-0.03h3.38v0.03c-0.21,0.14-0.39,0.39-0.54,0.75
			c-0.15,0.36-0.23,0.8-0.23,1.34v5.58C153.25,239.05,153.32,239.49,153.47,239.85z M158.79,239.86c0.23,0.2,0.52,0.37,0.86,0.51
			v0.03l-2.92,0.49c-0.08-0.39-0.28-0.84-0.61-1.35l-2.72-4.23l2.24-3.37c0.17-0.26,0.29-0.48,0.37-0.66s0.11-0.33,0.1-0.46v-0.01
			h2.96v0.03c-0.29,0.13-0.59,0.34-0.89,0.63s-0.56,0.6-0.79,0.93l-1.86,2.75l2.55,3.86C158.32,239.38,158.55,239.66,158.79,239.86z
			"/>
		<path class="st0" d="M162.91,239.85c0.14,0.35,0.3,0.6,0.49,0.74v0.03h-3.38v-0.03c0.21-0.14,0.38-0.39,0.54-0.75
			s0.23-0.8,0.23-1.34v-5.63c0-0.52-0.08-0.95-0.23-1.3c-0.15-0.35-0.33-0.59-0.54-0.73v-0.03h3.38v0.03
			c-0.19,0.14-0.35,0.39-0.49,0.75c-0.14,0.36-0.2,0.8-0.2,1.34v5.58C162.71,239.05,162.77,239.49,162.91,239.85z M168.38,239.86
			c0.23,0.2,0.51,0.37,0.85,0.51v0.03l-2.83,0.48c-0.04-0.16-0.12-0.36-0.25-0.61c-0.13-0.25-0.27-0.49-0.44-0.73l-2.85-4.23
			l2.38-3.37c0.33-0.47,0.48-0.85,0.47-1.13h2.93v0.03c-0.27,0.13-0.55,0.34-0.85,0.62c-0.29,0.28-0.56,0.6-0.82,0.95l-1.99,2.69
			l2.68,3.92C167.91,239.38,168.15,239.66,168.38,239.86z"/>
		<path class="st0" d="M169.64,240.59c0.19-0.14,0.35-0.39,0.5-0.75c0.15-0.36,0.22-0.81,0.22-1.33v-5.57
			c0-0.54-0.08-0.99-0.23-1.35s-0.33-0.6-0.54-0.74v-0.03h3.44v0.03c-0.19,0.14-0.36,0.39-0.51,0.75c-0.15,0.36-0.23,0.81-0.23,1.33
			v2.48c0,0.83-0.1,1.81-0.31,2.96h0.06c0.31-0.88,0.77-1.83,1.37-2.83l2.03-3.37c0.22-0.36,0.36-0.63,0.44-0.82
			c0.08-0.19,0.12-0.37,0.14-0.53h3.12v0.03c-0.11,0.06-0.24,0.19-0.37,0.4c-0.13,0.21-0.24,0.46-0.33,0.75
			c-0.09,0.29-0.13,0.58-0.13,0.86v5.64c0,0.54,0.08,0.99,0.23,1.35s0.33,0.6,0.54,0.74v0.03h-3.47v-0.03
			c0.21-0.14,0.39-0.39,0.54-0.75s0.23-0.8,0.23-1.34v-2.54c0-0.94,0.13-1.98,0.39-3.13h-0.06c-0.38,1.07-0.85,2.07-1.42,3
			l-2.13,3.44c-0.3,0.49-0.54,0.93-0.7,1.34h-2.81V240.59z"/>
		<path class="st0" d="M38.98,257.5c0.24-0.27,0.44-0.57,0.58-0.88c0.14-0.31,0.23-0.7,0.27-1.16l0.37-5.47l0.01-0.27
			c0-0.41-0.06-0.8-0.19-1.17c-0.13-0.37-0.32-0.63-0.58-0.79l0.01-0.03h3.23c-0.07,0.08-0.1,0.19-0.1,0.34
			c0,0.25,0.11,0.57,0.32,0.94l1.4,2.4c0.47,0.81,0.76,1.58,0.87,2.33h0.06c0.09-0.39,0.22-0.74,0.37-1.06
			c0.16-0.32,0.38-0.75,0.67-1.26l1.38-2.44c0.21-0.38,0.31-0.68,0.31-0.92c0-0.14-0.03-0.25-0.1-0.32h3.26l0.01,0.03
			c-0.29,0.16-0.51,0.46-0.65,0.91c-0.14,0.45-0.2,0.89-0.17,1.32l0.44,5.47c0.03,0.37,0.11,0.74,0.26,1.12
			c0.15,0.38,0.34,0.69,0.57,0.92l-0.01,0.03h-3.23l-0.01-0.03c0.13-0.11,0.24-0.3,0.34-0.56c0.09-0.26,0.14-0.56,0.14-0.9
			c0-0.12,0-0.22-0.01-0.28l-0.23-2.92c-0.02-0.32-0.03-0.57-0.03-0.76c0-0.52,0.04-1.07,0.11-1.66H48.6
			c-0.14,0.45-0.3,0.86-0.46,1.22c-0.17,0.36-0.38,0.75-0.62,1.18l-1.56,2.65c-0.39,0.66-0.62,1.23-0.66,1.71h-0.11
			c-0.07-0.49-0.3-1.05-0.71-1.69l-1.68-2.68c-0.24-0.38-0.43-0.75-0.59-1.11c-0.15-0.37-0.3-0.79-0.43-1.27h-0.06
			c0.07,0.66,0.1,1.25,0.1,1.76c0,0.31,0,0.53-0.01,0.66l-0.16,2.92c-0.02,0.41,0.02,0.78,0.11,1.09c0.09,0.31,0.21,0.53,0.36,0.66
			l-0.01,0.03H39L38.98,257.5z"/>
		<path class="st0" d="M54.93,257.15c-0.76-0.44-1.34-1.05-1.74-1.82s-0.6-1.64-0.6-2.61c0-1.05,0.21-1.98,0.63-2.77
			c0.42-0.79,1.02-1.41,1.81-1.85c0.79-0.44,1.72-0.66,2.79-0.66c1,0,1.88,0.21,2.64,0.63c0.76,0.42,1.35,1.02,1.77,1.79
			c0.42,0.77,0.63,1.65,0.63,2.65c0,1.03-0.22,1.95-0.66,2.76c-0.44,0.8-1.05,1.43-1.85,1.87s-1.71,0.66-2.74,0.66
			C56.58,257.81,55.69,257.59,54.93,257.15z M59.29,255.9c0.46-0.3,0.81-0.73,1.07-1.29c0.26-0.56,0.39-1.21,0.39-1.94
			c0-1.18-0.27-2.11-0.82-2.76c-0.54-0.66-1.3-0.99-2.26-0.99c-0.61,0-1.14,0.15-1.59,0.46s-0.8,0.73-1.04,1.28
			c-0.24,0.55-0.36,1.19-0.36,1.92c0,1.17,0.26,2.1,0.79,2.76c0.53,0.67,1.28,1,2.27,1C58.32,256.35,58.83,256.2,59.29,255.9z"/>
		<path class="st0" d="M62.91,257.5c0.23-0.2,0.47-0.5,0.73-0.91c0.26-0.41,0.48-0.87,0.65-1.37l1.83-5.57
			c0.1-0.33,0.15-0.61,0.15-0.85c0-0.23-0.04-0.43-0.11-0.61s-0.17-0.32-0.29-0.44v-0.03h3.85v0.03c-0.24,0.19-0.35,0.5-0.35,0.93
			c0,0.26,0.06,0.56,0.17,0.9l1.86,5.63c0.17,0.51,0.38,0.96,0.65,1.37c0.26,0.41,0.51,0.71,0.73,0.91v0.03h-3.26v-0.03
			c0.12-0.12,0.18-0.32,0.18-0.61c0-0.27-0.07-0.65-0.21-1.13l-0.97-3.16c-0.19-0.61-0.34-1.14-0.46-1.59
			c-0.12-0.45-0.21-0.89-0.28-1.33h-0.06c-0.06,0.44-0.14,0.87-0.25,1.29c-0.11,0.42-0.27,0.96-0.47,1.63l-0.97,3.16
			c-0.14,0.48-0.21,0.85-0.21,1.13c0,0.3,0.06,0.5,0.18,0.61v0.03h-3.12V257.5z"/>
		<path class="st0" d="M75.2,257.15c-0.76-0.44-1.34-1.05-1.74-1.82s-0.6-1.64-0.6-2.61c0-1.05,0.21-1.98,0.63-2.77
			c0.42-0.79,1.02-1.41,1.81-1.85c0.79-0.44,1.72-0.66,2.79-0.66c1,0,1.88,0.21,2.64,0.63c0.76,0.42,1.35,1.02,1.77,1.79
			c0.42,0.77,0.63,1.65,0.63,2.65c0,1.03-0.22,1.95-0.66,2.76c-0.44,0.8-1.05,1.43-1.85,1.87s-1.71,0.66-2.74,0.66
			C76.85,257.81,75.96,257.59,75.2,257.15z M79.56,255.9c0.46-0.3,0.81-0.73,1.07-1.29c0.26-0.56,0.39-1.21,0.39-1.94
			c0-1.18-0.27-2.11-0.82-2.76c-0.54-0.66-1.3-0.99-2.26-0.99c-0.61,0-1.14,0.15-1.59,0.46s-0.8,0.73-1.04,1.28
			c-0.24,0.55-0.36,1.19-0.36,1.92c0,1.17,0.26,2.1,0.79,2.76c0.53,0.67,1.28,1,2.27,1C78.59,256.35,79.11,256.2,79.56,255.9z"/>
		<path class="st0" d="M93.51,256.08l-0.72,2.89h-0.03c-0.09-0.44-0.32-0.79-0.69-1.05s-0.81-0.39-1.34-0.39h-4.98
			c-0.53,0-0.98,0.13-1.35,0.39c-0.37,0.26-0.6,0.61-0.68,1.04H83.7l-0.72-2.89c0.29,0.02,0.72,0.04,1.28,0.06l2.2-6.41
			c0.13-0.37,0.2-0.71,0.2-1.03c0-0.41-0.11-0.72-0.34-0.93v-0.03h3.86v0.03c-0.25,0.22-0.37,0.54-0.37,0.96
			c0,0.28,0.05,0.56,0.16,0.85l2.31,6.57C92.83,256.12,93.24,256.1,93.51,256.08z M86.18,256.14h4.03l-1.2-3.52
			c-0.23-0.66-0.4-1.2-0.51-1.64c-0.12-0.43-0.21-0.91-0.27-1.44h-0.06c-0.08,0.53-0.19,1-0.3,1.41c-0.12,0.41-0.29,0.97-0.51,1.66
			L86.18,256.14z"/>
		<path class="st0" d="M100.48,251.9c0.64,0.54,0.97,1.3,0.97,2.28c0,0.71-0.15,1.32-0.45,1.83s-0.71,0.88-1.22,1.14
			c-0.51,0.26-1.08,0.39-1.71,0.39h-4.14v-0.03c0.21-0.14,0.38-0.39,0.54-0.75s0.23-0.8,0.23-1.34v-5.63c0-0.52-0.08-0.95-0.23-1.3
			c-0.15-0.35-0.33-0.59-0.54-0.73v-0.03h3.45v0.03c-0.21,0.14-0.38,0.39-0.54,0.75c-0.15,0.36-0.23,0.8-0.23,1.34v1.24h1.33
			C98.99,251.09,99.84,251.36,100.48,251.9z M99.43,254.29c0-0.61-0.16-1.06-0.49-1.36s-0.83-0.44-1.52-0.44h-0.82v3.64h0.82
			C98.77,256.12,99.43,255.51,99.43,254.29z M102,257.5c0.21-0.14,0.39-0.39,0.54-0.75s0.23-0.8,0.23-1.34v-5.57
			c0-0.54-0.08-0.99-0.23-1.35s-0.33-0.6-0.54-0.74v-0.03h3.47v0.03c-0.21,0.14-0.38,0.39-0.54,0.75c-0.15,0.36-0.23,0.8-0.23,1.34
			v5.57c0,0.54,0.08,0.99,0.23,1.35s0.33,0.6,0.54,0.74v0.03H102V257.5z"/>
		<path class="st0" d="M115,256.5c0.35,0.34,0.66,0.61,0.94,0.8v0.03l-2.95,0.52c0-0.19-0.07-0.43-0.22-0.73s-0.37-0.68-0.67-1.15
			l-1.44-2.23l-1.55,2.52c-0.19,0.31-0.28,0.58-0.28,0.8c0,0.19,0.07,0.33,0.2,0.44v0.03h-3.33v-0.03c0.24-0.11,0.52-0.33,0.84-0.66
			c0.31-0.33,0.62-0.71,0.91-1.16l2.18-3.37l-2.23-3.33c-0.2-0.29-0.39-0.53-0.58-0.71c-0.19-0.18-0.42-0.35-0.69-0.51v-0.03h3.29
			v0.03c-0.02,0.11-0.03,0.19-0.03,0.24c0,0.16,0.03,0.32,0.1,0.49c0.07,0.17,0.17,0.37,0.31,0.61l1.07,1.79l1-1.72
			c0.14-0.25,0.25-0.46,0.31-0.61s0.1-0.29,0.1-0.42s-0.03-0.26-0.1-0.38v-0.03h3.1v0.03c-0.23,0.08-0.48,0.27-0.76,0.56
			c-0.28,0.29-0.57,0.67-0.86,1.14l-1.73,2.85l2.07,2.99C114.32,255.76,114.65,256.15,115,256.5z"/>
		<path class="st0" d="M127.99,247.73v0.03c-0.34,0.25-0.62,0.55-0.85,0.89c-0.23,0.34-0.43,0.74-0.6,1.2l-1.99,5.34
			c-0.22,0.59-0.32,1.06-0.32,1.4c0,0.36,0.11,0.66,0.34,0.92v0.03h-3.36v-0.03c0.56-0.56,1.02-1.31,1.37-2.23l0.54-1.41h-1.31
			l-1.85-4.16c-0.23-0.5-0.44-0.9-0.63-1.21s-0.42-0.55-0.66-0.74v-0.03h3.3v0.03c-0.15,0.3-0.23,0.57-0.23,0.82
			c0,0.3,0.1,0.68,0.3,1.13l1.41,3.3l1.25-3.3c0.2-0.53,0.3-0.97,0.3-1.33c0-0.21-0.03-0.42-0.08-0.65H127.99z"/>
		<path class="st0" d="M136.38,248.51c-0.15,0.36-0.23,0.8-0.23,1.34v5.57c0,0.54,0.08,0.99,0.23,1.35s0.33,0.6,0.54,0.74v0.03
			h-3.45v-0.03c0.21-0.14,0.38-0.39,0.54-0.75s0.23-0.8,0.23-1.34v-1.45c-0.42,0.08-0.88,0.11-1.38,0.11
			c-1.33,0-2.29-0.31-2.86-0.94s-0.85-1.54-0.85-2.74v-0.55c0-0.54-0.07-0.98-0.22-1.34c-0.15-0.36-0.32-0.61-0.53-0.75v-0.03h3.33
			v0.03c-0.19,0.13-0.34,0.38-0.47,0.73s-0.18,0.81-0.18,1.35v0.76c0,0.69,0.19,1.2,0.56,1.54c0.38,0.34,0.96,0.51,1.76,0.51
			c0.29,0,0.57-0.02,0.83-0.07v-2.73c0-0.54-0.06-1-0.18-1.36c-0.12-0.36-0.28-0.6-0.47-0.73v-0.03h3.34v0.03
			C136.71,247.9,136.53,248.15,136.38,248.51z"/>
		<path class="st0" d="M145.67,254.84l-0.39,2.8c-0.26-0.05-0.51-0.08-0.75-0.09c-0.24-0.01-0.56-0.02-0.97-0.02h-4.98v-0.03
			c0.21-0.14,0.38-0.39,0.54-0.75s0.23-0.8,0.23-1.34v-5.57c0-0.54-0.08-0.99-0.23-1.35s-0.33-0.6-0.54-0.74v-0.03h5.06
			c0.67,0,1.17-0.04,1.49-0.11l0.24,2.52l-0.03,0.01c-0.17-0.35-0.44-0.61-0.82-0.78c-0.38-0.17-0.84-0.26-1.4-0.26h-1.86v2.48h1.07
			c0.59,0,1.03-0.01,1.31-0.02c0.28-0.01,0.58-0.04,0.89-0.08l-0.41,2.37h-0.03c-0.11-0.31-0.3-0.54-0.55-0.68
			c-0.25-0.14-0.58-0.21-0.99-0.21h-1.3v3.17h1.54c0.62,0,1.17-0.11,1.66-0.34c0.48-0.23,0.88-0.55,1.18-0.99L145.67,254.84z
			 M140.51,246.6c-0.16-0.16-0.24-0.36-0.24-0.58c0-0.23,0.08-0.43,0.24-0.59c0.16-0.16,0.36-0.24,0.59-0.24
			c0.23,0,0.42,0.08,0.57,0.24c0.16,0.16,0.23,0.36,0.23,0.59c0,0.23-0.08,0.42-0.23,0.58c-0.15,0.17-0.34,0.25-0.57,0.25
			C140.87,246.85,140.67,246.77,140.51,246.6z M142.71,246.6c-0.16-0.16-0.24-0.36-0.24-0.58c0-0.23,0.08-0.43,0.24-0.59
			c0.16-0.16,0.36-0.24,0.59-0.24c0.23,0,0.42,0.08,0.57,0.24s0.23,0.36,0.23,0.59c0,0.23-0.08,0.42-0.23,0.58
			c-0.16,0.17-0.34,0.25-0.57,0.25C143.07,246.85,142.87,246.77,142.71,246.6z"/>
		<path class="st0" d="M155.64,248.51c-0.15,0.36-0.23,0.8-0.23,1.34v5.62c0,0.52,0.08,0.95,0.23,1.3s0.33,0.59,0.54,0.73v0.03
			h-3.41v-0.03c0.19-0.14,0.35-0.39,0.5-0.74s0.22-0.78,0.22-1.29v-2.47h-3.75v2.41c0,0.54,0.07,0.98,0.21,1.34
			c0.14,0.36,0.31,0.61,0.51,0.75v0.03h-3.41v-0.03c0.21-0.14,0.38-0.39,0.54-0.75s0.23-0.8,0.23-1.34v-5.57
			c0-0.54-0.08-0.99-0.23-1.35s-0.33-0.6-0.54-0.74v-0.03h3.41v0.03c-0.19,0.14-0.35,0.39-0.5,0.75c-0.15,0.36-0.22,0.81-0.22,1.33
			v1.75h3.75v-1.75c0-0.54-0.07-0.98-0.21-1.34c-0.14-0.36-0.31-0.61-0.51-0.75v-0.03h3.41v0.03
			C155.97,247.9,155.79,248.15,155.64,248.51z"/>
		<path class="st0" d="M164.4,251.9c0.64,0.54,0.97,1.3,0.97,2.28c0,0.71-0.15,1.32-0.45,1.83s-0.71,0.88-1.22,1.14
			c-0.51,0.26-1.08,0.39-1.71,0.39h-4.14v-0.03c0.21-0.14,0.38-0.39,0.54-0.75s0.23-0.8,0.23-1.34v-5.63c0-0.52-0.08-0.95-0.23-1.3
			c-0.15-0.35-0.33-0.59-0.54-0.73v-0.03h3.45v0.03c-0.21,0.14-0.38,0.39-0.54,0.75c-0.15,0.36-0.23,0.8-0.23,1.34v1.24h1.33
			C162.91,251.09,163.75,251.36,164.4,251.9z M163.35,254.29c0-0.61-0.16-1.06-0.49-1.36s-0.83-0.44-1.52-0.44h-0.82v3.64h0.82
			C162.68,256.12,163.35,255.51,163.35,254.29z M165.91,257.5c0.21-0.14,0.39-0.39,0.54-0.75s0.23-0.8,0.23-1.34v-5.57
			c0-0.54-0.08-0.99-0.23-1.35s-0.33-0.6-0.54-0.74v-0.03h3.47v0.03c-0.21,0.14-0.38,0.39-0.54,0.75c-0.15,0.36-0.23,0.8-0.23,1.34
			v5.57c0,0.54,0.08,0.99,0.23,1.35s0.33,0.6,0.54,0.74v0.03h-3.47V257.5z"/>
		<path class="st0" d="M178.91,256.5c0.35,0.34,0.66,0.61,0.94,0.8v0.03l-2.95,0.52c0-0.19-0.07-0.43-0.22-0.73
			s-0.37-0.68-0.67-1.15l-1.44-2.23l-1.55,2.52c-0.19,0.31-0.28,0.58-0.28,0.8c0,0.19,0.07,0.33,0.2,0.44v0.03h-3.33v-0.03
			c0.24-0.11,0.52-0.33,0.84-0.66c0.31-0.33,0.62-0.71,0.91-1.16l2.18-3.37l-2.23-3.33c-0.2-0.29-0.39-0.53-0.58-0.71
			c-0.19-0.18-0.42-0.35-0.69-0.51v-0.03h3.29v0.03c-0.02,0.11-0.03,0.19-0.03,0.24c0,0.16,0.03,0.32,0.1,0.49
			c0.07,0.17,0.17,0.37,0.31,0.61l1.07,1.79l1-1.72c0.14-0.25,0.25-0.46,0.31-0.61s0.1-0.29,0.1-0.42s-0.03-0.26-0.1-0.38v-0.03h3.1
			v0.03c-0.23,0.08-0.48,0.27-0.76,0.56c-0.28,0.29-0.57,0.67-0.86,1.14l-1.73,2.85l2.07,2.99
			C178.23,255.76,178.56,256.15,178.91,256.5z"/>
		<path class="st0" d="M41.56,274.42c0.19-0.14,0.35-0.39,0.5-0.75c0.15-0.36,0.22-0.81,0.22-1.33v-5.57c0-0.54-0.08-0.99-0.23-1.35
			s-0.33-0.6-0.54-0.74v-0.03h3.44v0.03c-0.19,0.14-0.36,0.39-0.51,0.75c-0.15,0.36-0.23,0.81-0.23,1.33v2.48
			c0,0.83-0.1,1.81-0.31,2.96h0.06c0.31-0.88,0.77-1.83,1.37-2.83l2.03-3.37c0.22-0.36,0.36-0.63,0.44-0.82
			c0.08-0.19,0.12-0.37,0.14-0.53h3.12v0.03c-0.11,0.06-0.24,0.19-0.37,0.4c-0.13,0.21-0.24,0.46-0.33,0.75
			c-0.09,0.29-0.13,0.58-0.13,0.86v5.64c0,0.54,0.08,0.99,0.23,1.35s0.33,0.6,0.54,0.74v0.03h-3.47v-0.03
			c0.21-0.14,0.39-0.39,0.54-0.75s0.23-0.8,0.23-1.34v-2.54c0-0.94,0.13-1.98,0.39-3.13h-0.06c-0.38,1.07-0.85,2.07-1.42,3
			l-2.13,3.44c-0.3,0.49-0.54,0.93-0.7,1.34h-2.81V274.42z"/>
		<path class="st0" d="M52.35,274.42c0.24-0.27,0.44-0.57,0.58-0.88c0.14-0.31,0.23-0.7,0.27-1.16l0.37-5.47l0.01-0.27
			c0-0.41-0.06-0.8-0.19-1.17c-0.13-0.37-0.32-0.63-0.58-0.79l0.01-0.03h3.23c-0.07,0.08-0.1,0.19-0.1,0.34
			c0,0.25,0.11,0.57,0.32,0.94l1.4,2.4c0.47,0.81,0.76,1.58,0.87,2.33h0.06c0.09-0.39,0.22-0.74,0.37-1.06
			c0.16-0.32,0.38-0.75,0.67-1.26l1.38-2.44c0.21-0.38,0.31-0.68,0.31-0.92c0-0.14-0.03-0.25-0.1-0.32h3.26l0.01,0.03
			c-0.29,0.16-0.51,0.46-0.65,0.91c-0.14,0.45-0.2,0.89-0.17,1.32l0.44,5.47c0.03,0.37,0.11,0.74,0.26,1.12
			c0.15,0.38,0.34,0.69,0.57,0.92l-0.01,0.03h-3.23l-0.01-0.03c0.13-0.11,0.24-0.3,0.34-0.56c0.09-0.26,0.14-0.56,0.14-0.9
			c0-0.12,0-0.22-0.01-0.28l-0.23-2.92c-0.02-0.32-0.03-0.57-0.03-0.76c0-0.52,0.04-1.07,0.11-1.66h-0.06
			c-0.14,0.45-0.3,0.86-0.46,1.22c-0.17,0.36-0.38,0.75-0.62,1.18l-1.56,2.65c-0.39,0.66-0.62,1.23-0.66,1.71h-0.11
			c-0.07-0.49-0.3-1.05-0.71-1.69l-1.68-2.68c-0.24-0.38-0.43-0.75-0.59-1.11c-0.15-0.37-0.3-0.79-0.43-1.27h-0.06
			c0.07,0.66,0.1,1.25,0.1,1.76c0,0.31,0,0.53-0.01,0.66l-0.16,2.92c-0.02,0.41,0.02,0.78,0.11,1.09c0.09,0.31,0.21,0.53,0.36,0.66
			l-0.01,0.03h-3.1L52.35,274.42z"/>
		<path class="st0" d="M73.32,271.76l-0.39,2.8c-0.26-0.05-0.51-0.08-0.75-0.09c-0.24-0.01-0.56-0.02-0.97-0.02h-4.98v-0.03
			c0.21-0.14,0.38-0.39,0.54-0.75s0.23-0.8,0.23-1.34v-5.57c0-0.54-0.08-0.99-0.23-1.35s-0.33-0.6-0.54-0.74v-0.03h5.06
			c0.67,0,1.17-0.04,1.49-0.11l0.24,2.52L73,267.08c-0.17-0.35-0.44-0.61-0.82-0.78c-0.38-0.17-0.84-0.26-1.4-0.26h-1.86v2.48H70
			c0.59,0,1.03-0.01,1.31-0.02c0.28-0.01,0.58-0.04,0.89-0.08l-0.41,2.37h-0.03c-0.11-0.31-0.3-0.54-0.55-0.68
			c-0.25-0.14-0.58-0.21-0.99-0.21h-1.3v3.17h1.54c0.62,0,1.17-0.11,1.66-0.34c0.48-0.23,0.88-0.55,1.18-0.99L73.32,271.76z"/>
		<path class="st0" d="M83.29,265.43c-0.15,0.36-0.23,0.8-0.23,1.34v5.62c0,0.52,0.08,0.95,0.23,1.3s0.33,0.59,0.54,0.73v0.03h-3.41
			v-0.03c0.19-0.14,0.35-0.39,0.5-0.74s0.22-0.78,0.22-1.29v-2.47h-3.75v2.41c0,0.54,0.07,0.98,0.21,1.34
			c0.14,0.36,0.31,0.61,0.51,0.75v0.03h-3.41v-0.03c0.21-0.14,0.38-0.39,0.54-0.75s0.23-0.8,0.23-1.34v-5.57
			c0-0.54-0.08-0.99-0.23-1.35s-0.33-0.6-0.54-0.74v-0.03h3.41v0.03c-0.19,0.14-0.35,0.39-0.5,0.75c-0.15,0.36-0.22,0.81-0.22,1.33
			v1.75h3.75v-1.75c0-0.54-0.07-0.98-0.21-1.34c-0.14-0.36-0.31-0.61-0.51-0.75v-0.03h3.41v0.03
			C83.62,264.82,83.44,265.07,83.29,265.43z"/>
		<path class="st0" d="M85.53,274.42c0.19-0.14,0.35-0.39,0.5-0.75c0.15-0.36,0.22-0.81,0.22-1.33v-5.57c0-0.54-0.08-0.99-0.23-1.35
			s-0.33-0.6-0.54-0.74v-0.03h3.44v0.03c-0.19,0.14-0.36,0.39-0.51,0.75c-0.15,0.36-0.23,0.81-0.23,1.33v2.48
			c0,0.83-0.1,1.81-0.31,2.96h0.06c0.31-0.88,0.77-1.83,1.37-2.83l2.03-3.37c0.22-0.36,0.36-0.63,0.44-0.82
			c0.08-0.19,0.12-0.37,0.14-0.53h3.12v0.03c-0.11,0.06-0.24,0.19-0.37,0.4c-0.13,0.21-0.24,0.46-0.33,0.75
			c-0.09,0.29-0.13,0.58-0.13,0.86v5.64c0,0.54,0.08,0.99,0.23,1.35s0.33,0.6,0.54,0.74v0.03h-3.47v-0.03
			c0.21-0.14,0.39-0.39,0.54-0.75s0.23-0.8,0.23-1.34v-2.54c0-0.94,0.13-1.98,0.39-3.13h-0.06c-0.38,1.07-0.85,2.07-1.42,3
			l-2.13,3.44c-0.3,0.49-0.54,0.93-0.7,1.34h-2.81V274.42z"/>
		<path class="st0" d="M100.22,274.42c0.21-0.13,0.39-0.4,0.55-0.8c0.16-0.4,0.24-0.85,0.24-1.36v-5.55c0-0.52-0.08-0.95-0.23-1.3
			c-0.15-0.35-0.33-0.59-0.54-0.73v-0.03h4.14c1.02,0,1.71-0.03,2.07-0.1l0.24,2.52l-0.03,0.01c-0.17-0.35-0.44-0.61-0.82-0.78
			c-0.38-0.17-0.84-0.26-1.4-0.26h-1.52v6.27c0,0.51,0.08,0.95,0.25,1.34c0.17,0.38,0.37,0.64,0.61,0.76v0.03h-3.58V274.42z"/>
		<path class="st0" d="M114.71,271.76l-0.39,2.8c-0.26-0.05-0.51-0.08-0.75-0.09c-0.24-0.01-0.56-0.02-0.97-0.02h-4.98v-0.03
			c0.21-0.14,0.38-0.39,0.54-0.75s0.23-0.8,0.23-1.34v-5.57c0-0.54-0.08-0.99-0.23-1.35s-0.33-0.6-0.54-0.74v-0.03h5.06
			c0.67,0,1.17-0.04,1.49-0.11l0.24,2.52l-0.03,0.01c-0.17-0.35-0.44-0.61-0.82-0.78c-0.38-0.17-0.84-0.26-1.4-0.26h-1.86v2.48h1.07
			c0.59,0,1.03-0.01,1.31-0.02c0.28-0.01,0.58-0.04,0.89-0.08l-0.41,2.37h-0.03c-0.11-0.31-0.3-0.54-0.55-0.68
			c-0.25-0.14-0.58-0.21-0.99-0.21h-1.3v3.17h1.54c0.62,0,1.17-0.11,1.66-0.34c0.48-0.23,0.88-0.55,1.18-0.99L114.71,271.76z"/>
		<path class="st0" d="M124.68,265.43c-0.15,0.36-0.23,0.8-0.23,1.34v5.62c0,0.52,0.08,0.95,0.23,1.3s0.33,0.59,0.54,0.73v0.03
			h-3.41v-0.03c0.19-0.14,0.35-0.39,0.5-0.74s0.22-0.78,0.22-1.29v-2.47h-3.75v2.41c0,0.54,0.07,0.98,0.21,1.34
			c0.14,0.36,0.31,0.61,0.51,0.75v0.03h-3.41v-0.03c0.21-0.14,0.38-0.39,0.54-0.75s0.23-0.8,0.23-1.34v-5.57
			c0-0.54-0.08-0.99-0.23-1.35s-0.33-0.6-0.54-0.74v-0.03h3.41v0.03c-0.19,0.14-0.35,0.39-0.5,0.75c-0.15,0.36-0.22,0.81-0.22,1.33
			v1.75h3.75v-1.75c0-0.54-0.07-0.98-0.21-1.34c-0.14-0.36-0.31-0.61-0.51-0.75v-0.03h3.41v0.03
			C125.01,264.82,124.83,265.07,124.68,265.43z"/>
		<path class="st0" d="M135.48,265.43c-0.15,0.36-0.23,0.8-0.23,1.34v5.62c0,0.52,0.08,0.95,0.23,1.3s0.33,0.59,0.54,0.73v0.03
			h-3.41v-0.03c0.19-0.14,0.35-0.39,0.5-0.74s0.22-0.78,0.22-1.29v-2.47h-3.75v2.41c0,0.54,0.07,0.98,0.21,1.34
			c0.14,0.36,0.31,0.61,0.51,0.75v0.03h-3.41v-0.03c0.21-0.14,0.38-0.39,0.54-0.75s0.23-0.8,0.23-1.34v-5.57
			c0-0.54-0.08-0.99-0.23-1.35s-0.33-0.6-0.54-0.74v-0.03h3.41v0.03c-0.19,0.14-0.35,0.39-0.5,0.75c-0.15,0.36-0.22,0.81-0.22,1.33
			v1.75h3.75v-1.75c0-0.54-0.07-0.98-0.21-1.34c-0.14-0.36-0.31-0.61-0.51-0.75v-0.03h3.41v0.03
			C135.81,264.82,135.63,265.07,135.48,265.43z"/>
		<path class="st0" d="M145.91,273.52c0.26,0.42,0.5,0.72,0.72,0.9v0.03h-3.19v-0.03c0.15-0.11,0.23-0.33,0.23-0.65
			c0-0.3-0.08-0.66-0.23-1.08l-0.13-0.34h-3.64l-0.13,0.34c-0.15,0.38-0.23,0.74-0.23,1.07s0.07,0.55,0.2,0.66v0.03h-2.96v-0.03
			c0.22-0.19,0.45-0.49,0.71-0.9c0.26-0.41,0.48-0.87,0.66-1.38l2.02-5.81c0.08-0.25,0.13-0.48,0.13-0.69
			c0-0.22-0.04-0.41-0.11-0.58s-0.16-0.3-0.27-0.38v-0.03h3.74v0.03c-0.1,0.09-0.19,0.22-0.27,0.39c-0.08,0.17-0.11,0.36-0.11,0.57
			c0,0.21,0.04,0.44,0.13,0.69l2.07,5.81C145.43,272.64,145.65,273.11,145.91,273.52z M141.19,267.89c-0.12,0.43-0.3,0.96-0.52,1.59
			l-0.52,1.49h2.71l-0.52-1.49c-0.23-0.68-0.41-1.22-0.54-1.62s-0.22-0.85-0.28-1.33h-0.06
			C141.4,267.01,141.31,267.46,141.19,267.89z"/>
		<path class="st0" d="M157.29,273l-0.72,2.89h-0.03c-0.09-0.44-0.32-0.79-0.69-1.05s-0.81-0.39-1.34-0.39h-4.98
			c-0.53,0-0.98,0.13-1.35,0.39c-0.37,0.26-0.6,0.61-0.68,1.04h-0.03l-0.72-2.89c0.29,0.02,0.72,0.04,1.28,0.06l2.2-6.41
			c0.13-0.37,0.2-0.71,0.2-1.03c0-0.41-0.11-0.72-0.34-0.93v-0.03h3.86v0.03c-0.25,0.22-0.37,0.54-0.37,0.96
			c0,0.28,0.05,0.56,0.16,0.85l2.31,6.57C156.6,273.03,157.01,273.02,157.29,273z M149.96,273.05h4.03l-1.2-3.52
			c-0.23-0.66-0.4-1.2-0.51-1.64c-0.12-0.43-0.21-0.91-0.27-1.44h-0.06c-0.08,0.53-0.19,1-0.3,1.41c-0.12,0.41-0.29,0.97-0.51,1.66
			L149.96,273.05z"/>
		<path class="st0" d="M157.74,274.42c0.19-0.14,0.35-0.39,0.5-0.75c0.15-0.36,0.22-0.81,0.22-1.33v-5.57
			c0-0.54-0.08-0.99-0.23-1.35s-0.33-0.6-0.54-0.74v-0.03h3.44v0.03c-0.19,0.14-0.36,0.39-0.51,0.75c-0.15,0.36-0.23,0.81-0.23,1.33
			v2.48c0,0.83-0.1,1.81-0.31,2.96h0.06c0.31-0.88,0.77-1.83,1.37-2.83l2.03-3.37c0.22-0.36,0.36-0.63,0.44-0.82
			c0.08-0.19,0.12-0.37,0.14-0.53h3.12v0.03c-0.11,0.06-0.24,0.19-0.37,0.4c-0.13,0.21-0.24,0.46-0.33,0.75
			c-0.09,0.29-0.13,0.58-0.13,0.86v5.64c0,0.54,0.08,0.99,0.23,1.35s0.33,0.6,0.54,0.74v0.03h-3.47v-0.03
			c0.21-0.14,0.39-0.39,0.54-0.75s0.23-0.8,0.23-1.34v-2.54c0-0.94,0.13-1.98,0.39-3.13h-0.06c-0.38,1.07-0.85,2.07-1.42,3
			l-2.13,3.44c-0.3,0.49-0.54,0.93-0.7,1.34h-2.81V274.42z"/>
		<path class="st0" d="M175.67,265.43c-0.15,0.36-0.23,0.8-0.23,1.34v5.57c0,0.54,0.08,0.99,0.23,1.35s0.33,0.6,0.54,0.74v0.03
			h-3.37v-0.03c0.18-0.14,0.34-0.39,0.47-0.75c0.14-0.36,0.2-0.81,0.2-1.33v-6.29l-1.07-0.01c-0.61-0.01-1.08,0.13-1.4,0.42
			s-0.48,0.74-0.48,1.34c0,0.52,0.16,0.92,0.49,1.21s0.79,0.44,1.38,0.44h0.76l-2.09,3.72c-0.31,0.55-0.54,1.08-0.68,1.58
			l-2.68-0.52v-0.03c0.27-0.08,0.56-0.26,0.85-0.54c0.3-0.29,0.56-0.63,0.8-1.04l1.21-2.11c-0.63-0.2-1.12-0.52-1.48-0.97
			s-0.54-0.98-0.54-1.61c0-1.07,0.3-1.88,0.91-2.44c0.61-0.55,1.5-0.83,2.69-0.83h4v0.03C176,264.82,175.82,265.07,175.67,265.43z"
			/>
		<path class="st0" d="M58.25,290.6c0.14,0.35,0.3,0.6,0.49,0.74v0.03h-3.38v-0.03c0.21-0.14,0.38-0.39,0.54-0.75
			s0.23-0.8,0.23-1.34v-5.63c0-0.52-0.08-0.95-0.23-1.3c-0.15-0.35-0.33-0.59-0.54-0.73v-0.03h3.38v0.03
			c-0.19,0.14-0.35,0.39-0.49,0.75c-0.14,0.36-0.2,0.8-0.2,1.34v5.58C58.05,289.8,58.12,290.24,58.25,290.6z M63.72,290.61
			c0.23,0.2,0.51,0.37,0.85,0.51v0.03l-2.83,0.48c-0.04-0.16-0.12-0.36-0.25-0.61c-0.13-0.25-0.27-0.49-0.44-0.73l-2.85-4.23
			l2.38-3.37c0.33-0.47,0.48-0.85,0.47-1.13h2.93v0.03c-0.27,0.13-0.55,0.34-0.85,0.62c-0.29,0.28-0.56,0.6-0.82,0.95l-1.99,2.69
			l2.68,3.92C63.26,290.13,63.49,290.41,63.72,290.61z"/>
		<path class="st0" d="M66.39,290.98c-0.76-0.44-1.34-1.05-1.74-1.82s-0.6-1.64-0.6-2.61c0-1.05,0.21-1.98,0.63-2.77
			c0.42-0.79,1.02-1.41,1.81-1.85c0.79-0.44,1.72-0.66,2.79-0.66c1,0,1.88,0.21,2.64,0.63c0.76,0.42,1.35,1.02,1.77,1.79
			c0.42,0.77,0.63,1.65,0.63,2.65c0,1.03-0.22,1.95-0.66,2.76c-0.44,0.8-1.05,1.43-1.85,1.87s-1.71,0.66-2.74,0.66
			C68.05,291.65,67.16,291.43,66.39,290.98z M70.76,289.73c0.46-0.3,0.81-0.73,1.07-1.29c0.26-0.56,0.39-1.21,0.39-1.94
			c0-1.18-0.27-2.11-0.82-2.76c-0.54-0.66-1.3-0.99-2.26-0.99c-0.61,0-1.14,0.15-1.59,0.46s-0.8,0.73-1.04,1.28
			c-0.24,0.55-0.36,1.19-0.36,1.92c0,1.17,0.26,2.1,0.79,2.76c0.53,0.67,1.28,1,2.27,1C69.79,290.18,70.3,290.03,70.76,289.73z"/>
		<path class="st0" d="M74.97,291.34c0.24-0.27,0.44-0.57,0.58-0.88c0.14-0.31,0.23-0.7,0.27-1.16l0.37-5.47l0.01-0.27
			c0-0.41-0.06-0.8-0.19-1.17c-0.13-0.37-0.32-0.63-0.58-0.79l0.01-0.03h3.23c-0.07,0.08-0.1,0.19-0.1,0.34
			c0,0.25,0.11,0.57,0.32,0.94l1.4,2.4c0.47,0.81,0.76,1.58,0.87,2.33h0.06c0.09-0.39,0.22-0.74,0.37-1.06
			c0.16-0.32,0.38-0.75,0.67-1.26l1.38-2.44c0.21-0.38,0.31-0.68,0.31-0.92c0-0.14-0.03-0.25-0.1-0.32h3.26l0.01,0.03
			c-0.29,0.16-0.51,0.46-0.65,0.91c-0.14,0.45-0.2,0.89-0.17,1.32l0.44,5.47c0.03,0.37,0.11,0.74,0.26,1.12
			c0.15,0.38,0.34,0.69,0.57,0.92l-0.01,0.03h-3.23l-0.01-0.03c0.13-0.11,0.24-0.3,0.34-0.56c0.09-0.26,0.14-0.56,0.14-0.9
			c0-0.12,0-0.22-0.01-0.28l-0.23-2.92c-0.02-0.32-0.03-0.57-0.03-0.76c0-0.52,0.04-1.07,0.11-1.66h-0.06
			c-0.14,0.45-0.3,0.86-0.46,1.22c-0.17,0.36-0.38,0.75-0.62,1.18l-1.56,2.65c-0.39,0.66-0.62,1.23-0.66,1.71h-0.11
			c-0.07-0.49-0.3-1.05-0.71-1.69l-1.68-2.68c-0.24-0.38-0.43-0.75-0.59-1.11c-0.15-0.37-0.3-0.79-0.43-1.27H77.7
			c0.07,0.66,0.1,1.25,0.1,1.76c0,0.31,0,0.53-0.01,0.66l-0.16,2.92c-0.02,0.41,0.02,0.78,0.11,1.09c0.09,0.31,0.21,0.53,0.36,0.66
			l-0.01,0.03h-3.1L74.97,291.34z"/>
		<path class="st0" d="M88.54,291.34c0.19-0.14,0.35-0.39,0.5-0.75c0.15-0.36,0.22-0.81,0.22-1.33v-5.57c0-0.54-0.08-0.99-0.23-1.35
			s-0.33-0.6-0.54-0.74v-0.03h3.44v0.03c-0.19,0.14-0.36,0.39-0.51,0.75c-0.15,0.36-0.23,0.81-0.23,1.33v2.48
			c0,0.83-0.1,1.81-0.31,2.96h0.06c0.31-0.88,0.77-1.83,1.37-2.83l2.03-3.37c0.22-0.36,0.36-0.63,0.44-0.82
			c0.08-0.19,0.12-0.37,0.14-0.53h3.12v0.03c-0.11,0.06-0.24,0.19-0.37,0.4c-0.13,0.21-0.24,0.46-0.33,0.75
			c-0.09,0.29-0.13,0.58-0.13,0.86v5.64c0,0.54,0.08,0.99,0.23,1.35s0.33,0.6,0.54,0.74v0.03H94.5v-0.03
			c0.21-0.14,0.39-0.39,0.54-0.75s0.23-0.8,0.23-1.34v-2.54c0-0.94,0.13-1.98,0.39-3.13H95.6c-0.38,1.07-0.85,2.07-1.42,3
			l-2.13,3.44c-0.3,0.49-0.54,0.93-0.7,1.34h-2.81V291.34z"/>
		<path class="st0" d="M101.48,290.92c-0.75-0.44-1.33-1.04-1.73-1.8c-0.4-0.77-0.61-1.63-0.61-2.59c0-1.04,0.22-1.96,0.66-2.74
			c0.44-0.78,1.06-1.38,1.85-1.8c0.8-0.42,1.73-0.63,2.79-0.63c0.86,0,1.68,0.12,2.48,0.35l0.23,2.44l-0.03,0.01
			c-0.28-0.43-0.66-0.76-1.13-0.99c-0.47-0.23-0.99-0.34-1.56-0.34c-0.99,0-1.76,0.32-2.33,0.95c-0.57,0.63-0.85,1.5-0.85,2.59
			c0,1.11,0.26,2,0.78,2.68s1.26,1.01,2.22,1.01c0.72,0,1.33-0.13,1.83-0.4s0.95-0.66,1.34-1.18l0.03,0.01l-0.34,2.52
			c-1.01,0.36-2.02,0.54-3,0.54C103.11,291.58,102.23,291.36,101.48,290.92z"/>
		<path class="st0" d="M110.24,290.92c-0.75-0.44-1.33-1.04-1.73-1.8c-0.4-0.77-0.61-1.63-0.61-2.59c0-1.04,0.22-1.96,0.66-2.74
			c0.44-0.78,1.06-1.38,1.85-1.8c0.8-0.42,1.73-0.63,2.79-0.63c0.86,0,1.68,0.12,2.48,0.35l0.23,2.44l-0.03,0.01
			c-0.28-0.43-0.66-0.76-1.13-0.99c-0.47-0.23-0.99-0.34-1.56-0.34c-0.99,0-1.76,0.32-2.33,0.95c-0.57,0.63-0.85,1.5-0.85,2.59
			c0,1.11,0.26,2,0.78,2.68s1.26,1.01,2.22,1.01c0.72,0,1.33-0.13,1.83-0.4s0.95-0.66,1.34-1.18l0.03,0.01l-0.34,2.52
			c-1.01,0.36-2.02,0.54-3,0.54C111.86,291.58,110.99,291.36,110.24,290.92z"/>
		<path class="st0" d="M125.53,290.44c0.26,0.42,0.5,0.72,0.72,0.9v0.03h-3.19v-0.03c0.15-0.11,0.23-0.33,0.23-0.65
			c0-0.3-0.08-0.66-0.23-1.08l-0.13-0.34h-3.64l-0.13,0.34c-0.15,0.38-0.23,0.74-0.23,1.07s0.07,0.55,0.2,0.66v0.03h-2.96v-0.03
			c0.22-0.19,0.45-0.49,0.71-0.9c0.26-0.41,0.48-0.87,0.66-1.38l2.02-5.81c0.08-0.25,0.13-0.48,0.13-0.69
			c0-0.22-0.04-0.41-0.11-0.58s-0.16-0.3-0.27-0.38v-0.03h3.74v0.03c-0.1,0.09-0.19,0.22-0.27,0.39c-0.08,0.17-0.11,0.36-0.11,0.57
			c0,0.21,0.04,0.44,0.13,0.69l2.07,5.81C125.05,289.56,125.27,290.02,125.53,290.44z M120.81,284.8c-0.12,0.43-0.3,0.96-0.52,1.59
			l-0.52,1.49h2.71l-0.52-1.49c-0.23-0.68-0.41-1.22-0.54-1.62s-0.22-0.85-0.28-1.33h-0.06
			C121.02,283.92,120.93,284.38,120.81,284.8z"/>
		<path class="st0" d="M132.95,282.4c0.62,0.55,0.93,1.34,0.93,2.35c0,1.13-0.3,1.97-0.92,2.54c-0.61,0.56-1.49,0.85-2.64,0.85
			h-1.16v1.17c0,0.52,0.08,0.95,0.23,1.3s0.33,0.59,0.54,0.73v0.03h-3.45v-0.03c0.21-0.14,0.38-0.39,0.54-0.75s0.23-0.8,0.23-1.34
			v-5.63c0-0.52-0.08-0.95-0.23-1.3c-0.15-0.35-0.33-0.59-0.54-0.73v-0.03h3.85C131.45,281.57,132.33,281.85,132.95,282.4z
			 M131.88,284.85c0-0.65-0.15-1.13-0.46-1.43c-0.3-0.31-0.78-0.46-1.42-0.46h-0.83v3.76l0.83,0.01
			C131.25,286.75,131.88,286.12,131.88,284.85z"/>
		<path class="st0" d="M136.91,290.98c-0.76-0.44-1.34-1.05-1.74-1.82s-0.6-1.64-0.6-2.61c0-1.05,0.21-1.98,0.63-2.77
			c0.42-0.79,1.02-1.41,1.81-1.85c0.79-0.44,1.72-0.66,2.79-0.66c1,0,1.88,0.21,2.64,0.63c0.76,0.42,1.35,1.02,1.77,1.79
			c0.42,0.77,0.63,1.65,0.63,2.65c0,1.03-0.22,1.95-0.66,2.76c-0.44,0.8-1.05,1.43-1.85,1.87s-1.71,0.66-2.74,0.66
			C138.56,291.65,137.67,291.43,136.91,290.98z M141.27,289.73c0.46-0.3,0.81-0.73,1.07-1.29c0.26-0.56,0.39-1.21,0.39-1.94
			c0-1.18-0.27-2.11-0.82-2.76c-0.54-0.66-1.3-0.99-2.26-0.99c-0.61,0-1.14,0.15-1.59,0.46s-0.8,0.73-1.04,1.28
			c-0.24,0.55-0.36,1.19-0.36,1.92c0,1.17,0.26,2.1,0.79,2.76c0.53,0.67,1.28,1,2.27,1C140.3,290.18,140.82,290.03,141.27,289.73z"
			/>
		<path class="st0" d="M152.42,286.56c0.32,0.23,0.58,0.51,0.78,0.85c0.19,0.34,0.29,0.7,0.29,1.07c0,0.9-0.31,1.61-0.92,2.12
			c-0.61,0.51-1.41,0.77-2.38,0.77h-4.29v-0.03c0.23-0.17,0.42-0.43,0.58-0.78c0.16-0.35,0.25-0.82,0.25-1.39v-5.41
			c0-0.54-0.08-1-0.23-1.36c-0.15-0.36-0.35-0.63-0.6-0.8v-0.03h3.89c1.06,0,1.86,0.2,2.39,0.61c0.53,0.4,0.8,1.02,0.8,1.86
			c0,0.35-0.08,0.67-0.23,0.97c-0.15,0.3-0.36,0.55-0.61,0.74c-0.25,0.19-0.51,0.31-0.78,0.36v0.04
			C151.74,286.2,152.1,286.33,152.42,286.56z M148.67,282.95v2.54h1.02c0.41,0,0.73-0.11,0.96-0.34s0.35-0.57,0.35-1.01
			c0-0.4-0.11-0.69-0.34-0.89s-0.55-0.3-0.97-0.3H148.67z M151.08,289.55c0.26-0.29,0.39-0.67,0.39-1.15c0-0.48-0.13-0.86-0.39-1.14
			c-0.26-0.28-0.65-0.42-1.17-0.42h-1.24v3.13h1.24C150.42,289.98,150.81,289.84,151.08,289.55z"/>
		<path class="st0" d="M162.73,290.44c0.26,0.42,0.5,0.72,0.72,0.9v0.03h-3.19v-0.03c0.15-0.11,0.23-0.33,0.23-0.65
			c0-0.3-0.08-0.66-0.23-1.08l-0.13-0.34h-3.64l-0.13,0.34c-0.15,0.38-0.23,0.74-0.23,1.07s0.07,0.55,0.2,0.66v0.03h-2.96v-0.03
			c0.22-0.19,0.45-0.49,0.71-0.9c0.26-0.41,0.48-0.87,0.66-1.38l2.02-5.81c0.08-0.25,0.13-0.48,0.13-0.69
			c0-0.22-0.04-0.41-0.11-0.58s-0.16-0.3-0.27-0.38v-0.03h3.74v0.03c-0.1,0.09-0.19,0.22-0.27,0.39c-0.08,0.17-0.11,0.36-0.11,0.57
			c0,0.21,0.04,0.44,0.13,0.69l2.07,5.81C162.25,289.56,162.47,290.02,162.73,290.44z M158.01,284.8c-0.12,0.43-0.3,0.96-0.52,1.59
			l-0.52,1.49h2.71l-0.52-1.49c-0.23-0.68-0.41-1.22-0.54-1.62s-0.22-0.85-0.28-1.33h-0.06
			C158.22,283.92,158.13,284.38,158.01,284.8z"/>
	</g>
	<path class="st1" d="M110,39.5h0.17c0,0,4.14-6.06,15.65-8.99c8.49-2.16,31.14-7.16,31.14-7.16l-0.51,70.42
		c0.33,7.99-5.33,16.71-23.31,23.7s-19.31,13.53-19.31,13.53v20.03h-2.66h-5.04v-20.03c0,0-1.33-6.54-19.31-13.53
		s-23.64-15.71-23.31-23.7L63,23.35c0,0,22.65,4.99,31.14,7.16c11.51,2.93,15.65,8.99,15.65,8.99h0.17"/>
	<path class="st1" d="M113.62,151.04"/>
	<line class="st1" x1="109.96" y1="39.67" x2="109.96" y2="103.73"/>
	<line class="st1" x1="142.4" y1="69.03" x2="110.02" y2="83.85"/>
	<line class="st1" x1="109.57" y1="70.93" x2="78.06" y2="55.09"/>
</g>
</svg>
